<?xml version="1.0" encoding="utf-8"?>
<!-- Generator: Adobe Illustrator 21.1.0, SVG Export Plug-In . SVG Version: 6.00 Build 0)  -->
<svg version="1.1" id="Слой_1" xmlns="http://www.w3.org/2000/svg" xmlns:xlink="http://www.w3.org/1999/xlink" x="0px" y="0px"
	 viewBox="0 0 216 54" style="enable-background:new 0 0 216 54;" xml:space="preserve">
<style type="text/css">
	.st0{fill:#487FBE;}
	.st1{fill:#7BC3E1;}
	.st2{fill:#5596D3;}
	.st3{fill:#E7A54A;}
	.st4{fill:#E28A2C;}
	.st5{fill:#FFFFFF;}
</style>
<g id="menu_1_">
	<g>
		<path class="st0" d="M74.6,23.7c-0.7-0.5-1.8-1.1-2.9-1.4c-1.6-0.5-3.8-0.5-5.4,0l-0.8,0.2l0-6.5c0-1-0.7-1.8-1.7-1.8l-1.8,0
			c-1,0-2,0.8-2,1.8l-0.1,22.3c0,1,0.9,1.7,1.9,1.8l1.8,0c1,0,1.7-0.8,1.7-1.7l0-9.9c0-0.2,0.2-0.3,0.3-0.4c0.6-0.2,2.6-0.8,3.2-0.8
			c0.7,0,1.4,0.3,2,0.7c0.9,0.6,1.4,1.7,1.4,2.8l0,7.6c0,1,0.9,1.7,1.9,1.8l1.8,0c1,0,1.7-0.8,1.7-1.7l0-7.6
			C77.9,27.8,77.1,25.5,74.6,23.7z"/>
		<path class="st0" d="M124.1,23.8c-0.7-0.5-1.7-1.1-2.8-1.4c-1.5-0.4-3.4-0.4-4.5,0v0l-3.3,1c-0.5-0.4-1.4-0.8-2.3-1
			c-1.6-0.5-3.3-0.5-4.9,0l-0.7,0.2l-4.3,1.4c-0.7,0.2-1.2,0.9-1.2,1.7l0,12.7c0,1,0.8,1.7,1.8,1.8l1.8,0c1,0,1.8-0.8,1.8-1.7l0-9.9
			c0-0.2,0.1-0.3,0.3-0.4c0.6-0.2,2.1-0.8,2.6-0.8c1.5,0,2.5,1.2,2.6,2.2l0,8.9c0,1,0.8,1.8,1.8,1.8l1.8,0c1,0,1.8-0.8,1.8-1.8
			l0-10.2c0-0.2,0.1-0.3,0.3-0.4c0.6-0.2,1.3-0.4,1.7-0.4c0.7,0,1.4,0.3,2,0.7c0.9,0.6,1.5,1.7,1.5,2.8l0,7.6c0,1,0.8,1.8,1.8,1.8
			l1.8,0c1,0,1.9-0.8,1.9-1.8l0-7.6C127.4,28,126.5,25.6,124.1,23.8z"/>
		<path class="st0" d="M187.7,22.2c-0.9,0-1.8,0.1-2.6,0.4l-0.7,0.2l-4.4,1.6c-0.7,0.3-1.2,0.9-1.2,1.6l0,12.6c0,1,0.9,1.8,1.9,1.8
			l1.8,0c1,0,1.7-0.8,1.7-1.8l0-9.9c0-0.2,0.2-0.3,0.3-0.4c0.6-0.2,2.2-0.8,2.7-0.8c0.8,0,1.6,0.2,2.3,0.5c0.9,0.4,2-0.1,2.4-1
			l0.7-1.7c0.4-0.9-0.1-1.9-1-2.2C190.6,22.6,189.3,22.3,187.7,22.2z"/>
		<path class="st0" d="M89,21.8c-6,0-9.3,4.5-9.3,9.2c0,4.7,3.2,9.2,9.2,9.3s9.3-4.6,9.3-9.2S95.1,21.8,89,21.8z M89,34.9
			c-2.4,0-3.8-1.7-3.8-3.9c0-2.1,1.5-3.9,3.8-3.9s3.8,1.7,3.8,3.9C92.8,33.2,91.4,34.9,89,34.9z"/>
		<path class="st0" d="M158.3,36c-0.3-0.8-1.3-1.3-2.2-1.1c-1.2,0.3-2.5,0.2-3.1,0c-1-0.5-1-1.3-1-1.3l0-6.5l2.4,0
			c1,0,1.8-0.7,1.8-1.7l0-1.8c0-1-0.8-1.8-1.8-1.8l-2.4,0l0-4c0-1-0.8-1.8-1.8-1.8l-1.8,0c-1,0-1.8,0.9-1.8,1.8l0,15.6
			c0,0.8-0.1,3.9,2.6,5.8c1.1,0.8,2.5,1.2,4.2,1.2c0.1,0,0.1,0,0.2,0c2,0,3.3-0.2,4.3-0.5c1-0.3,1.6-1.4,1.2-2.3L158.3,36z"/>
		<path class="st0" d="M206.8,27.3l0.8-1.2c0.5-0.8,0.3-1.9-0.6-2.4c-1.2-0.7-3.2-1.5-6.2-1.5c-5.3,0-7.6,2.9-7.6,5.4
			c0,2.6,1.6,4.4,5,5.3c2.8,0.7,4.4,1.2,4.4,2c0,0.6-0.8,0.8-1.9,0.8c-1.5,0-3.1-0.7-4.3-1.3c-0.8-0.5-1.9-0.3-2.4,0.5l-1,1.3
			c-0.6,0.8-0.4,1.9,0.5,2.4c1.4,0.9,3.9,2.1,7.3,2.1c5.4,0,7.6-2.9,7.6-5.7c0-3.2-2.5-5.1-7-6c-1.6-0.3-2.7-0.6-2.7-1.1
			c0-0.6,1.2-0.8,2.3-0.8c1.4,0.1,2.4,0.4,3.4,1C205.3,28.3,206.3,28.1,206.8,27.3z"/>
		<path class="st0" d="M143.1,27.1l0.8-1.2c0.5-0.8,0.3-1.9-0.6-2.4c-1.2-0.7-3.2-1.5-6.2-1.5c-5.3,0-7.6,2.9-7.6,5.4
			c0,2.6,1.6,4.4,5,5.3c2.8,0.7,4.4,1.2,4.4,2c0,0.6-0.8,0.8-1.9,0.8c-1.5,0-3.1-0.7-4.3-1.3c-0.8-0.5-1.9-0.3-2.4,0.5l-1,1.3
			c-0.6,0.8-0.4,1.9,0.5,2.4c1.4,0.9,3.9,2.1,7.3,2.1c5.4,0,7.6-2.9,7.6-5.7c0-3.2-2.5-5.1-7-6c-1.6-0.3-2.7-0.6-2.7-1.1
			c0-0.6,1.2-0.8,2.3-0.8c1.4,0.1,2.4,0.4,3.4,1C141.5,28.2,142.6,27.9,143.1,27.1z"/>
		<path class="st0" d="M166.2,34.4l8.7-3c1.5-0.5,2.1-2,1.8-3.5c-0.5-3-3.5-5.9-8.3-5.9c-6.2,0-10,4.3-9.6,9.6
			c0.5,5.7,3.5,8.4,9.5,9c2.2,0.2,5.1-0.3,6.5-1c1-0.5,1.4-1.3,1-2.3l-0.7-1.5c-0.4-0.9-1.4-1.4-2.3-1c-1.2,0.5-4.4,1.7-6.8,0
			C166,34.7,166,34.5,166.2,34.4z M167.2,26.7c1.9-0.5,3.4,0,4.1,0.8c0.1,0.1,0,0.3-0.1,0.3l-6.5,2.2c-0.2,0.1-0.3-0.1-0.3-0.2
			C164.4,28.6,165.4,27.3,167.2,26.7z"/>
		<path class="st1" d="M48.9,14.8c-2-4.2-5.5-7.7-9.7-9.8c-3.1-1.6-6.6-2.5-10.3-2.5C21.5,2.4,15,5.9,11,11.2
			c-0.8,1.1-1.5,2.2-2.2,3.5c6.2-2,13-3.1,20-3.1C35.9,11.6,42.6,12.7,48.9,14.8z"/>
		<g>
			<path class="st2" d="M6.7,23.8c0,0.6,0,1.2,0.1,1.7c6.6-3.1,14.1-4.8,22-4.8c8,0,15.5,1.8,22,4.9c0.1-0.6,0.1-1.2,0.1-1.7
				c0-2.1-0.3-4.1-0.9-5.9c-0.3-1.1-0.7-2.1-1.2-3.2c-6.2-2.1-13-3.2-20-3.2c-7,0-13.8,1.1-20,3.1c-0.9,1.9-1.6,3.9-1.9,6.1
				C6.8,21.7,6.7,22.7,6.7,23.8z"/>
		</g>
		<path class="st0" d="M6.8,25.5C7,27.3,7.4,29.1,8.1,31c0.4,1.2,1,2.4,1.6,3.6c5.6-3,12.1-4.7,19.1-4.7c7.1,0,13.6,1.8,19.2,4.9
			c1-2.1,1.8-4.2,2.3-6.2c0.2-1,0.4-2,0.5-2.9c-6.6-3.1-14.1-4.9-22-4.9C20.9,20.7,13.4,22.4,6.8,25.5z"/>
		<path class="st3" d="M28.8,39.1c5.2,0,10.1,1.4,14.1,3.7c2-2.5,3.7-5.2,5.1-8c-5.6-3.1-12.2-4.8-19.2-4.9c-7,0-13.5,1.7-19.1,4.7
			c1.4,2.8,3.2,5.5,5.2,8C18.9,40.4,23.7,39.1,28.8,39.1z"/>
		<path class="st4" d="M14.9,42.6c4.6,5.7,10.1,9.9,13.9,10c4.3,0,9.7-4.1,14.2-9.7c-4.1-2.3-8.9-3.7-14.1-3.7
			C23.7,39.1,18.9,40.4,14.9,42.6z"/>
		<path class="st5" d="M39.4,37.1l-1.7,0c-1,0-1.9-0.8-1.9-1.7l0-7.5c0-0.7-0.3-1.4-1-1.7L31,23.9c-0.5-0.3-1.1-0.4-1.7-0.2l-5.8,2
			c-0.8,0.3-1.4,1-1.4,1.9l0,7.8c0,1-0.7,1.7-1.7,1.7l-1.7,0c-1,0-1.7-0.7-1.7-1.7l0-9.2c0-2.2,1.4-4.1,3.5-4.8l8.1-2.7
			c1.4-0.5,3-0.3,4.3,0.4l5.7,3.3c1.6,0.9,2.6,2.6,2.6,4.4l0,8.7C41.2,36.3,40.4,37.1,39.4,37.1z"/>
		<path class="st5" d="M19.8,20.3l0.5-0.1c1-0.3,1.8-1.3,1.8-2.3l0-2.6c0-0.6-0.6-1.1-1.2-1l-3.3,0.7c-0.5,0.1-0.9,0.5-0.9,0.9
			l0,5.7c0,0.3,0.4,0.5,0.6,0.3C18,21.2,18.8,20.6,19.8,20.3z"/>
	</g>
</g>
</svg>
